<?xml version="1.0" encoding="utf-8"?>
<!-- Generator: Adobe Illustrator 16.0.0, SVG Export Plug-In . SVG Version: 6.00 Build 0)  -->
<!DOCTYPE svg PUBLIC "-//W3C//DTD SVG 1.1//EN" "http://www.w3.org/Graphics/SVG/1.1/DTD/svg11.dtd">
<svg version="1.1" id="Calque_1" xmlns="http://www.w3.org/2000/svg" xmlns:xlink="http://www.w3.org/1999/xlink" x="0px" y="0px"
	 width="1071.934px" height="324.088px" viewBox="0 0 1071.934 324.088" enable-background="new 0 0 1071.934 324.088"
	 xml:space="preserve">
<g>
	<rect y="-1.393" fill="#31AC62" width="166.147" height="66.468"/>
	<g>
		<path d="M125.589,184.729V98.31h33.598v159.631h-33.598V228.83c-5.396,9.815-12.846,17.509-22.368,23.101
			c-9.475,5.618-19.729,8.401-30.743,8.401c-18,0-32.55-5.499-43.662-16.507c-11.111-10.987-16.651-26.885-16.651-47.715V98.31
			h33.624v87.612c0,29.401,12.186,44.106,36.578,44.106c11.623,0,21.732-3.832,30.33-11.551
			C121.293,210.784,125.589,199.528,125.589,184.729z"/>
		<path d="M291.514,129.811c-16.606,0-29.106,5.396-37.507,16.19c-8.401,10.817-12.599,25.318-12.599,43.514v68.426h-33.603V98.31
			h33.603v32.111c5.396-10.012,12.769-18.216,22.047-24.614c9.305-6.397,19.146-9.718,29.55-9.914l0.315,33.918
			C292.712,129.811,292.129,129.811,291.514,129.811z"/>
		<path d="M412.44,95.893c21.413,0,39.701,7.423,54.918,22.221c15.185,14.799,22.806,34.504,22.806,59.093
			c0,24.619-7.569,44.642-22.662,60.024c-15.113,15.408-32.72,23.101-52.816,23.101c-20.096,0-38.168-8.793-54.164-26.4v24.01
			h-33.598V35.286h33.598v90.935C373.735,106.003,391.023,95.893,412.44,95.893z M359.913,178.43
			c0,15.186,4.616,27.64,13.822,37.357c9.181,9.697,20.411,14.556,33.599,14.556c13.187,0,24.711-4.807,34.506-14.405
			c9.791-9.62,14.701-22.074,14.701-37.363c0-15.309-4.812-28.008-14.385-38.116c-9.62-10.087-21.124-15.165-34.528-15.165
			c-13.383,0-24.712,5.078-33.893,15.165C364.529,150.566,359.913,163.216,359.913,178.43z"/>
		<path d="M657.871,257.941h-30.593v-21.294c-13.213,15.795-30.893,23.685-53.111,23.685c-16.604,0-30.354-4.688-41.271-14.09
			c-10.89-9.403-16.336-21.955-16.336-37.683c0-15.676,5.788-27.443,17.411-35.235c11.577-7.786,27.305-11.695,47.079-11.695h43.518
			v-6.008c0-21.196-11.793-31.793-35.41-31.793c-14.799,0-30.18,5.373-46.197,16.19l-14.994-21.023
			c19.389-15.384,41.415-23.101,66.004-23.101c18.805,0,34.16,4.761,46.078,14.261c11.87,9.521,17.823,24.467,17.823,44.857V257.941
			z M624.273,198.526v-13.502h-37.801c-24.222,0-36.31,7.621-36.31,22.807c0,7.812,3,13.75,9.01,17.85
			c6.006,4.099,14.359,6.154,25.054,6.154c10.692,0,20.049-3.005,28.031-9.015C620.267,216.814,624.273,208.733,624.273,198.526z"/>
		<path d="M852.324,98.31v139.215c0,28.223-7.647,49.372-22.956,63.489c-15.311,14.086-34.946,21.149-58.972,21.149
			c-23.979,0-45.711-7.528-65.1-22.517l15.893-25.492c15.604,11.793,31.384,17.679,47.255,17.679
			c15.92,0,28.518-4.105,37.822-12.309c9.305-8.205,13.945-21.294,13.945-39.293v-20.385c-4.981,9.377-12.163,16.895-21.442,22.491
			c-9.325,5.587-19.776,8.396-31.353,8.396c-21.221,0-38.632-7.399-52.207-22.192c-13.626-14.798-20.415-33.211-20.415-55.217
			c0-21.999,6.789-40.411,20.415-55.209c13.575-14.798,30.939-22.221,52.062-22.221c21.099,0,38.24,8.719,51.448,26.127V98.31
			H852.324z M727.81,171.98c0,13.089,4.053,24.397,12.139,33.893c8.107,9.501,19.021,14.261,32.695,14.261
			c13.724,0,24.81-4.585,33.309-13.817c8.493-9.18,12.769-20.664,12.769-34.336c0-13.722-4.322-25.295-12.919-34.819
			c-8.591-9.501-19.678-14.262-33.304-14.262c-13.605,0-24.442,4.908-32.55,14.701C731.862,147.416,727.81,158.868,727.81,171.98z"
			/>
		<path d="M984.646,129.811c-16.6,0-29.105,5.396-37.506,16.19c-8.401,10.817-12.6,25.318-12.6,43.514v68.426h-33.598V98.31h33.598
			v32.111c5.422-10.012,12.749-18.216,22.074-24.614c9.278-6.397,19.145-9.718,29.55-9.914l0.289,33.918
			C985.87,129.811,985.261,129.811,984.646,129.811z"/>
		<path d="M1053.654,257.941h-33.599V98.31h33.599V257.941z"/>
	</g>
	<path fill="#31AC62" d="M1013.417,62.928c-6.594-6.568-9.867-14.359-9.867-23.442c0-9.108,3.273-16.874,9.867-23.468
		c6.567-6.544,14.354-9.841,23.44-9.841c9.083,0,16.875,3.297,23.442,9.841c6.594,6.594,9.862,14.359,9.862,23.468
		c0,9.083-3.269,16.874-9.862,23.442c-6.567,6.568-14.359,9.865-23.442,9.865C1027.771,72.792,1019.984,69.496,1013.417,62.928z"/>
</g>
</svg>
