<?xml version="1.0" encoding="utf-8"?>
<!-- Generator: Adobe Illustrator 16.0.0, SVG Export Plug-In . SVG Version: 6.00 Build 0)  -->
<!DOCTYPE svg PUBLIC "-//W3C//DTD SVG 1.1//EN" "http://www.w3.org/Graphics/SVG/1.1/DTD/svg11.dtd">
<svg version="1.1" id="Calque_1" xmlns="http://www.w3.org/2000/svg" xmlns:xlink="http://www.w3.org/1999/xlink" x="0px" y="0px"
	 width="1071.934px" height="324.088px" viewBox="0 0 1071.934 324.088" enable-background="new 0 0 1071.934 324.088"
	 xml:space="preserve">
<g>
	<rect y="0.001" fill="#FFFFFF" width="166.423" height="66.579"/>
	<g>
		<path fill="#FFFFFF" d="M125.797,186.431V99.869h33.653v159.893h-33.653v-29.157c-5.404,9.832-12.868,17.538-22.404,23.139
			c-9.491,5.625-19.763,8.415-30.794,8.415c-18.029,0-32.604-5.505-43.734-16.535c-11.13-11.008-16.679-26.93-16.679-47.794V99.869
			h33.68v87.76c0,29.449,12.205,44.176,36.638,44.176c11.642,0,21.769-3.84,30.38-11.569
			C121.494,212.529,125.797,201.253,125.797,186.431z"/>
		<path fill="#FFFFFF" d="M291.997,131.422c-16.633,0-29.154,5.404-37.569,16.217c-8.414,10.835-12.619,25.363-12.619,43.586v68.536
			h-33.659V99.869h33.659v32.164c5.404-10.028,12.79-18.247,22.084-24.655c9.319-6.408,19.178-9.733,29.599-9.93l0.315,33.975
			C293.196,131.422,292.612,131.422,291.997,131.422z"/>
		<path fill="#FFFFFF" d="M413.123,97.448c21.448,0,39.768,7.435,55.009,22.258c15.211,14.822,22.845,34.562,22.845,59.192
			c0,24.655-7.582,44.711-22.7,60.121c-15.138,15.433-32.774,23.139-52.903,23.139s-38.23-8.808-54.253-26.441v24.044h-33.654V36.74
			h33.654v91.085C374.354,107.575,391.67,97.448,413.123,97.448z M360.51,180.121c0,15.213,4.623,27.688,13.845,37.421
			c9.196,9.71,20.444,14.577,33.654,14.577c13.209,0,24.752-4.817,34.563-14.43c9.806-9.638,14.725-22.112,14.725-37.424
			c0-15.335-4.82-28.055-14.409-38.179c-9.635-10.104-21.158-15.19-34.585-15.19c-13.405,0-24.752,5.086-33.948,15.19
			C365.133,152.211,360.51,164.882,360.51,180.121z"/>
		<path fill="#FFFFFF" d="M658.961,259.761h-30.644v-21.329c-13.235,15.823-30.944,23.726-53.199,23.726
			c-16.633,0-30.405-4.696-41.339-14.114c-10.907-9.418-16.364-21.989-16.364-37.742c0-15.702,5.798-27.492,17.44-35.293
			c11.595-7.802,27.349-11.717,47.157-11.717h43.589v-6.018c0-21.23-11.812-31.846-35.469-31.846
			c-14.823,0-30.23,5.381-46.273,16.216l-15.02-21.057c19.421-15.41,41.484-23.14,66.113-23.14c18.836,0,34.217,4.769,46.154,14.285
			c11.89,9.537,17.854,24.507,17.854,44.931V259.761z M625.307,200.25v-13.527h-37.863c-24.262,0-36.369,7.634-36.369,22.847
			c0,7.825,3.005,13.771,9.025,17.88c6.015,4.109,14.383,6.162,25.094,6.162s20.083-3.007,28.078-9.025
			C621.294,218.569,625.307,210.475,625.307,200.25z"/>
		<path fill="#FFFFFF" d="M853.735,99.869v139.442c0,28.275-7.659,49.457-22.994,63.594c-15.335,14.114-35.004,21.184-59.068,21.184
			c-24.019,0-45.787-7.535-65.208-22.552l15.919-25.537c15.63,11.815,31.436,17.708,47.334,17.708
			c15.944,0,28.564-4.109,37.884-12.327c9.32-8.218,13.97-21.329,13.97-39.355v-20.424c-4.991,9.392-12.186,16.928-21.479,22.529
			c-9.34,5.602-19.808,8.412-31.403,8.412c-21.257,0-38.696-7.411-52.294-22.231c-13.648-14.822-20.449-33.266-20.449-55.303
			s6.801-40.481,20.449-55.303c13.598-14.823,30.99-22.258,52.148-22.258c21.133,0,38.304,8.733,51.533,26.17V99.869H853.735z
			 M729.015,173.664c0,13.108,4.06,24.435,12.159,33.949c8.12,9.514,19.053,14.285,32.748,14.285
			c13.747,0,24.852-4.598,33.364-13.845c8.508-9.196,12.79-20.693,12.79-34.388c0-13.747-4.328-25.34-12.939-34.879
			c-8.606-9.517-19.711-14.285-33.359-14.285c-13.628,0-24.483,4.916-32.604,14.725
			C733.074,149.056,729.015,160.527,729.015,173.664z"/>
		<path fill="#FFFFFF" d="M986.276,131.422c-16.628,0-29.154,5.404-37.568,16.217c-8.415,10.835-12.62,25.363-12.62,43.586v68.536
			h-33.653V99.869h33.653v32.164c5.431-10.028,12.77-18.247,22.11-24.655c9.294-6.408,19.178-9.733,29.599-9.93l0.29,33.975
			C987.502,131.422,986.892,131.422,986.276,131.422z"/>
		<path fill="#FFFFFF" d="M1055.399,259.761h-33.654V99.869h33.654V259.761z"/>
	</g>
	<path fill="#FFFFFF" d="M1015.095,64.428c-6.604-6.579-9.884-14.383-9.884-23.48c0-9.124,3.279-16.902,9.884-23.506
		c6.578-6.556,14.378-9.858,23.48-9.858c9.098,0,16.901,3.302,23.48,9.858c6.604,6.604,9.878,14.383,9.878,23.506
		c0,9.097-3.273,16.902-9.878,23.48c-6.579,6.579-14.383,9.881-23.48,9.881C1029.473,74.309,1021.673,71.006,1015.095,64.428z"/>
</g>
</svg>
